<svg width="163" height="113" viewBox="0 0 163 113" fill="none" xmlns="http://www.w3.org/2000/svg">
<path d="M106.4 28.52H111.76V55.04H106.4V28.52ZM110.24 38.84H116.68V43.2H110.24V38.84ZM96.08 31.28H101.76C101.76 41.36 95.6 48.28 84.56 51.48L82.32 47.24C91.4 44.76 96.08 39.8 96.08 33.92V31.28ZM83.92 31.28H98.96V35.56H83.92V31.28ZM87.8 60.68H113V64.92H87.8V60.68ZM87.8 52.36H93.16V62.56H87.8V52.36Z" fill="black"/>
<path d="M134.032 43.152H136.024V58.872H134.032V43.152ZM135.424 49.608H139.24V51.264H135.424V49.608ZM120.184 53.4H121.864C126.328 53.4 128.848 53.28 131.752 52.68L131.968 54.288C128.992 54.912 126.424 55.056 121.864 55.056H120.184V53.4ZM120.184 45.024H129.76V46.68H122.152V54.288H120.184V45.024ZM122.512 62.76H137.008V64.392H122.512V62.76ZM122.512 57.312H124.504V63.504H122.512V57.312ZM156.11 43.2H158.102V59.472H156.11V43.2ZM157.478 50.304H161.318V51.984H157.478V50.304ZM141.326 45.816H154.142V47.424H141.326V45.816ZM147.734 48.624C150.806 48.624 152.918 50.232 152.918 52.68C152.918 55.104 150.806 56.712 147.734 56.712C144.638 56.712 142.526 55.104 142.526 52.68C142.526 50.232 144.638 48.624 147.734 48.624ZM147.734 50.184C145.766 50.184 144.422 51.168 144.422 52.68C144.422 54.168 145.766 55.152 147.734 55.152C149.678 55.152 151.022 54.168 151.022 52.68C151.022 51.168 149.678 50.184 147.734 50.184ZM146.726 43.176H148.718V46.656H146.726V43.176ZM144.59 62.76H159.086V64.392H144.59V62.76ZM144.59 58.176H146.582V63.456H144.59V58.176Z" fill="black"/>
<path d="M118.32 70.64H122.92V71.72C122.92 78.24 117.6 83.56 108.2 84.84L106.24 80.68C114.4 79.68 118.32 75.52 118.32 71.72V70.64ZM119.84 70.64H124.44V71.72C124.44 75.52 128.36 79.68 136.52 80.68L134.6 84.84C125.16 83.56 119.84 78.24 119.84 71.72V70.64ZM118.6 90H123.88V103.6H118.6V90ZM104.64 86.96H138.12V91.2H104.64V86.96ZM107.6 68.4H135.08V72.6H107.6V68.4Z" fill="black"/>
<path d="M141.176 93.264H160.832V94.896H141.176V93.264ZM150.152 94.272H152.144V99.264H150.152V94.272ZM143.696 83.184H158.288V90.816H143.696V83.184ZM156.32 84.792H145.64V89.208H156.32V84.792ZM143.672 101.76H158.648V103.392H143.672V101.76ZM143.672 97.176H145.64V102.336H143.672V97.176Z" fill="black"/>
<rect x="2.5" y="2.5" width="69" height="107" rx="17.5" stroke="black" stroke-width="5"/>
<line x1="1" y1="90.5" x2="73" y2="90.5" stroke="black" stroke-width="5"/>
<line x1="1" y1="90.5" x2="73" y2="90.5" stroke="black" stroke-width="5"/>
<line x1="1" y1="22.5" x2="73" y2="22.5" stroke="black" stroke-width="5"/>
<line x1="1" y1="22.5" x2="73" y2="22.5" stroke="black" stroke-width="5"/>
<rect x="27" y="11" width="20" height="4" rx="2" fill="black"/>
<rect x="32" y="95" width="10" height="10" rx="5" fill="black"/>
<path d="M13 61C21.2899 69.3009 43.2957 80.9221 65 61" stroke="black" stroke-width="5" stroke-linecap="round"/>
<path d="M46.9999 71C45.6666 67.5 44.0999 59.8 48.4999 57C53.9999 53.5 59.9999 58 60.9999 63" stroke="black" stroke-width="5" stroke-linecap="round"/>
<line x1="53.43" y1="63.8575" x2="53.8575" y2="64.57" stroke="black" stroke-width="5" stroke-linecap="round"/>
<line x1="13.4385" y1="57.5082" x2="9.50823" y2="62.5615" stroke="black" stroke-width="5" stroke-linecap="round"/>
<path d="M90 4L85 18" stroke="black" stroke-width="2" stroke-linecap="round"/>
<ellipse cx="81" cy="17.5" rx="5" ry="4.5" fill="black"/>
<path d="M90 5C90.8333 6.83333 93.5 10 97.5 8" stroke="black" stroke-width="2" stroke-linecap="round"/>
</svg>
